<?xml version="1.0" encoding="UTF-8" standalone="no"?>
<!DOCTYPE svg PUBLIC "-//W3C//DTD SVG 1.1//EN"
 "http://www.w3.org/Graphics/SVG/1.1/DTD/svg11.dtd">
<!-- Generated by graphviz version 2.38.0 (20140413.2041)
 -->
<!-- Title: structs Pages: 1 -->
<svg width="902pt" height="208pt"
 viewBox="0.00 0.00 902.00 208.00" xmlns="http://www.w3.org/2000/svg" xmlns:xlink="http://www.w3.org/1999/xlink">
<g id="graph0" class="graph" transform="scale(1 1) rotate(0) translate(4 204)">
<title>structs</title>
<polygon fill="white" stroke="none" points="-4,4 -4,-204 898,-204 898,4 -4,4"/>
<!-- WORC_Example_Lung__config_classification_source -->
<g id="node1" class="node"><title>WORC_Example_Lung__config_classification_source</title>
<polygon fill="#caff70" stroke="black" points="0,-23.5 0,-69.5 235,-69.5 235,-23.5 0,-23.5"/>
<text text-anchor="middle" x="117.5" y="-54.3" font-family="Times,serif" font-size="14.00">config_classification_source</text>
<polyline fill="none" stroke="black" points="0,-46.5 235,-46.5 "/>
<text text-anchor="middle" x="45" y="-31.3" font-family="Times,serif" font-size="14.00"> </text>
<polyline fill="none" stroke="black" points="90,-23.5 90,-46.5 "/>
<text text-anchor="middle" x="162.5" y="-31.3" font-family="Times,serif" font-size="14.00">output [N]</text>
</g>
<!-- WORC_Example_Lung__classify -->
<g id="node3" class="node"><title>WORC_Example_Lung__classify</title>
<polygon fill="#e5e5e5" stroke="black" points="271,-65.5 271,-157.5 643,-157.5 643,-65.5 271,-65.5"/>
<text text-anchor="middle" x="457" y="-142.3" font-family="Times,serif" font-size="14.00">classify</text>
<polyline fill="none" stroke="black" points="271,-134.5 643,-134.5 "/>
<text text-anchor="middle" x="370" y="-119.3" font-family="Times,serif" font-size="14.00">[O] features_train</text>
<polyline fill="none" stroke="black" points="271,-111.5 469,-111.5 "/>
<text text-anchor="middle" x="370" y="-96.3" font-family="Times,serif" font-size="14.00">[O] patientclass_train</text>
<polyline fill="none" stroke="black" points="271,-88.5 469,-88.5 "/>
<text text-anchor="middle" x="370" y="-73.3" font-family="Times,serif" font-size="14.00">[O] config</text>
<polyline fill="none" stroke="black" points="469,-65.5 469,-134.5 "/>
<text text-anchor="middle" x="556" y="-113.8" font-family="Times,serif" font-size="14.00">classification [O]</text>
<polyline fill="none" stroke="black" points="469,-100.5 643,-100.5 "/>
<text text-anchor="middle" x="556" y="-79.3" font-family="Times,serif" font-size="14.00">performance [O]</text>
</g>
<!-- WORC_Example_Lung__config_classification_source&#45;&gt;WORC_Example_Lung__classify -->
<g id="edge2" class="edge"><title>WORC_Example_Lung__config_classification_source:o_output&#45;&gt;WORC_Example_Lung__classify:i_config</title>
<path fill="none" stroke="blue" stroke-width="3" d="M235,-34.5C255.36,-34.5 249.827,-63.3032 261.286,-73.2043"/>
<polygon fill="blue" stroke="blue" stroke-width="3" points="260.406,-76.6016 271,-76.5 262.655,-69.9727 260.406,-76.6016"/>
</g>
<!-- WORC_Example_Lung__config_classification_sink -->
<g id="node6" class="node"><title>WORC_Example_Lung__config_classification_sink</title>
<polygon fill="#b0e2ff" stroke="black" points="346,-0.5 346,-46.5 568,-46.5 568,-0.5 346,-0.5"/>
<text text-anchor="middle" x="457" y="-31.3" font-family="Times,serif" font-size="14.00">config_classification_sink</text>
<polyline fill="none" stroke="black" points="346,-23.5 568,-23.5 "/>
<text text-anchor="middle" x="413" y="-8.3" font-family="Times,serif" font-size="14.00">[N] input</text>
<polyline fill="none" stroke="black" points="480,-0.5 480,-23.5 "/>
<text text-anchor="middle" x="524" y="-8.3" font-family="Times,serif" font-size="14.00"> </text>
</g>
<!-- WORC_Example_Lung__config_classification_source&#45;&gt;WORC_Example_Lung__config_classification_sink -->
<g id="edge1" class="edge"><title>WORC_Example_Lung__config_classification_source:o_output&#45;&gt;WORC_Example_Lung__config_classification_sink:i_input</title>
<path fill="none" stroke="black" d="M235,-34.5C281.337,-34.5 293.385,-14.7041 334.766,-11.843"/>
<polygon fill="black" stroke="black" points="335.123,-15.3331 345,-11.5 334.888,-8.337 335.123,-15.3331"/>
</g>
<!-- WORC_Example_Lung__patientclass_train -->
<g id="node2" class="node"><title>WORC_Example_Lung__patientclass_train</title>
<polygon fill="#caff70" stroke="black" points="5,-88.5 5,-134.5 230,-134.5 230,-88.5 5,-88.5"/>
<text text-anchor="middle" x="117.5" y="-119.3" font-family="Times,serif" font-size="14.00">patientclass_train</text>
<polyline fill="none" stroke="black" points="5,-111.5 230,-111.5 "/>
<text text-anchor="middle" x="47" y="-96.3" font-family="Times,serif" font-size="14.00"> </text>
<polyline fill="none" stroke="black" points="89,-88.5 89,-111.5 "/>
<text text-anchor="middle" x="159.5" y="-96.3" font-family="Times,serif" font-size="14.00">output [M]</text>
</g>
<!-- WORC_Example_Lung__patientclass_train&#45;&gt;WORC_Example_Lung__classify -->
<g id="edge3" class="edge"><title>WORC_Example_Lung__patientclass_train:o_output&#45;&gt;WORC_Example_Lung__classify:i_patientclass_train</title>
<path fill="none" stroke="blue" stroke-width="3" d="M231.5,-99.5C245.078,-99.5 250.78,-99.5 260.789,-99.5"/>
<polygon fill="blue" stroke="blue" stroke-width="3" points="261,-103 271,-99.5 261,-96.0001 261,-103"/>
</g>
<!-- WORC_Example_Lung__classification -->
<g id="node4" class="node"><title>WORC_Example_Lung__classification</title>
<polygon fill="#b0e2ff" stroke="black" points="679,-121.5 679,-167.5 894,-167.5 894,-121.5 679,-121.5"/>
<text text-anchor="middle" x="786.5" y="-152.3" font-family="Times,serif" font-size="14.00">classification</text>
<polyline fill="none" stroke="black" points="679,-144.5 894,-144.5 "/>
<text text-anchor="middle" x="744.5" y="-129.3" font-family="Times,serif" font-size="14.00">[O] input</text>
<polyline fill="none" stroke="black" points="810,-121.5 810,-144.5 "/>
<text text-anchor="middle" x="852" y="-129.3" font-family="Times,serif" font-size="14.00"> </text>
</g>
<!-- WORC_Example_Lung__classify&#45;&gt;WORC_Example_Lung__classification -->
<g id="edge4" class="edge"><title>WORC_Example_Lung__classify:o_classification&#45;&gt;WORC_Example_Lung__classification:i_input</title>
<path fill="none" stroke="black" d="M643,-117.5C656.271,-117.5 660.163,-126.293 669.037,-130.414"/>
<polygon fill="black" stroke="black" points="668.495,-133.877 679,-132.5 669.929,-127.025 668.495,-133.877"/>
</g>
<!-- WORC_Example_Lung__performance -->
<g id="node5" class="node"><title>WORC_Example_Lung__performance</title>
<polygon fill="#b0e2ff" stroke="black" points="679,-56.5 679,-102.5 894,-102.5 894,-56.5 679,-56.5"/>
<text text-anchor="middle" x="786.5" y="-87.3" font-family="Times,serif" font-size="14.00">performance</text>
<polyline fill="none" stroke="black" points="679,-79.5 894,-79.5 "/>
<text text-anchor="middle" x="744.5" y="-64.3" font-family="Times,serif" font-size="14.00">[O] input</text>
<polyline fill="none" stroke="black" points="810,-56.5 810,-79.5 "/>
<text text-anchor="middle" x="852" y="-64.3" font-family="Times,serif" font-size="14.00"> </text>
</g>
<!-- WORC_Example_Lung__classify&#45;&gt;WORC_Example_Lung__performance -->
<g id="edge5" class="edge"><title>WORC_Example_Lung__classify:o_performance&#45;&gt;WORC_Example_Lung__performance:i_input</title>
<path fill="none" stroke="black" d="M643,-82.5C656.271,-82.5 660.163,-73.7073 669.037,-69.5857"/>
<polygon fill="black" stroke="black" points="669.929,-72.9749 679,-67.5 668.495,-66.1234 669.929,-72.9749"/>
</g>
<!-- WORC_Example_Lung__features_train_CT0 -->
<g id="node7" class="node"><title>WORC_Example_Lung__features_train_CT0</title>
<polygon fill="#caff70" stroke="black" points="8,-153.5 8,-199.5 227,-199.5 227,-153.5 8,-153.5"/>
<text text-anchor="middle" x="117.5" y="-184.3" font-family="Times,serif" font-size="14.00">features_train_CT0</text>
<polyline fill="none" stroke="black" points="8,-176.5 227,-176.5 "/>
<text text-anchor="middle" x="50" y="-161.3" font-family="Times,serif" font-size="14.00"> </text>
<polyline fill="none" stroke="black" points="92,-153.5 92,-176.5 "/>
<text text-anchor="middle" x="159.5" y="-161.3" font-family="Times,serif" font-size="14.00">output [P]</text>
</g>
<!-- WORC_Example_Lung__features_train_CT0&#45;&gt;WORC_Example_Lung__classify -->
<g id="edge6" class="edge"><title>WORC_Example_Lung__features_train_CT0:o_output&#45;&gt;WORC_Example_Lung__classify:i_features_train</title>
<path fill="none" stroke="blue" stroke-width="3" d="M228.5,-164.5C250.645,-164.5 246.992,-135.312 261.075,-126.19"/>
<polygon fill="blue" stroke="blue" stroke-width="3" points="262.264,-129.494 271,-123.5 260.433,-122.738 262.264,-129.494"/>
</g>
</g>
</svg>
